<svg width="44" height="44" viewBox="0 0 44 44" fill="none" xmlns="http://www.w3.org/2000/svg">
<path d="M31.4299 13.0826C29.717 12.2691 27.8855 11.6779 25.9707 11.3413C25.7356 11.7728 25.4608 12.3533 25.2714 12.815C23.2359 12.5043 21.2192 12.5043 19.2212 12.815C19.0318 12.3533 18.7508 11.7728 18.5136 11.3413C16.5967 11.6779 14.7631 12.2713 13.0502 13.0869C9.5953 18.386 8.65873 23.5536 9.12702 28.6477C11.4185 30.3846 13.6392 31.4398 15.8225 32.1302C16.3615 31.3772 16.8423 30.5767 17.2564 29.733C16.4676 29.4288 15.7121 29.0534 14.9983 28.6176C15.1877 28.4751 15.3729 28.3263 15.5519 28.1731C19.9059 30.2401 24.6366 30.2401 28.9386 28.1731C29.1197 28.3263 29.3049 28.4751 29.4922 28.6176C28.7763 29.0555 28.0187 29.431 27.2299 29.7352C27.6441 30.5767 28.1228 31.3793 28.6639 32.1323C30.8492 31.4419 33.072 30.3868 35.3635 28.6477C35.9129 22.7423 34.4248 17.6222 31.4299 13.0826ZM17.8496 25.5149C16.5426 25.5149 15.4707 24.2764 15.4707 22.7682C15.4707 21.26 16.5197 20.0194 17.8496 20.0194C19.1796 20.0194 20.2514 21.2578 20.2285 22.7682C20.2306 24.2764 19.1796 25.5149 17.8496 25.5149ZM26.6409 25.5149C25.3339 25.5149 24.262 24.2764 24.262 22.7682C24.262 21.26 25.3109 20.0194 26.6409 20.0194C27.9708 20.0194 29.0427 21.2578 29.0198 22.7682C29.0198 24.2764 27.9708 25.5149 26.6409 25.5149Z" fill="white"/>
</svg>
