<svg width="44" height="44" viewBox="0 0 44 44" fill="none" xmlns="http://www.w3.org/2000/svg">
<path d="M22.9487 23.6846C22.7388 23.8003 22.5031 23.8609 22.2635 23.8609C22.0238 23.8609 21.7881 23.8003 21.5782 23.6846L11.6313 18.1973V28.4691C11.6319 29.0329 11.8561 29.5735 12.2548 29.9721C12.6535 30.3708 13.194 30.595 13.7578 30.5956H30.7695C31.3333 30.595 31.8738 30.3708 32.2725 29.9721C32.6712 29.5735 32.8954 29.0329 32.8959 28.4691V18.1973L22.9487 23.6846Z" fill="white"/>
<path d="M30.7695 12.877H13.7578C13.194 12.8775 12.6535 13.1017 12.2548 13.5004C11.8561 13.8991 11.6319 14.4396 11.6313 15.0034V16.7755C11.6313 16.8389 11.6483 16.9011 11.6805 16.9557C11.7128 17.0103 11.7591 17.0553 11.8146 17.0859L22.0925 22.7565C22.1449 22.7854 22.2038 22.8006 22.2636 22.8006C22.3235 22.8006 22.3824 22.7854 22.4348 22.7565L32.7127 17.0859C32.7682 17.0553 32.8145 17.0103 32.8467 16.9557C32.879 16.9011 32.896 16.8389 32.8959 16.7755V15.0034C32.8954 14.4396 32.6712 13.8991 32.2725 13.5004C31.8738 13.1017 31.3333 12.8775 30.7695 12.877Z" fill="white"/>
</svg>
