<svg width="44" height="44" viewBox="0 0 44 44" fill="none" xmlns="http://www.w3.org/2000/svg">
<path d="M30.7507 16.9953C30.7651 17.2021 30.7651 17.4089 30.7651 17.6156C30.7651 23.9211 26.0867 31.1865 17.536 31.1865C14.9017 31.1865 12.4545 30.4038 10.396 29.0453C10.7703 29.0896 11.1301 29.1044 11.5188 29.1044C13.6924 29.1044 15.6934 28.3513 17.2913 27.0665C15.2471 27.0222 13.5341 25.6489 12.9439 23.7587C13.2318 23.803 13.5197 23.8325 13.822 23.8325C14.2395 23.8325 14.657 23.7734 15.0456 23.6701C12.9152 23.227 11.3172 21.3073 11.3172 18.9889V18.9299C11.9362 19.2843 12.656 19.5058 13.4189 19.5353C12.1665 18.6788 11.346 17.2169 11.346 15.5629C11.346 14.6769 11.5763 13.8647 11.9794 13.1559C14.2683 16.0502 17.7087 17.9404 21.5666 18.1472C21.4946 17.7928 21.4514 17.4236 21.4514 17.0544C21.4514 14.4259 23.5243 12.2847 26.101 12.2847C27.4398 12.2847 28.6489 12.8606 29.4983 13.7909C30.5491 13.5842 31.5567 13.1854 32.4493 12.6391C32.1038 13.7466 31.3696 14.677 30.4052 15.2676C31.3409 15.1643 32.2478 14.8984 33.0827 14.5293C32.4494 15.4743 31.6576 16.316 30.7507 16.9953Z" fill="white"/>
</svg>
